{
  "asset": {
    "version": "2.0",
    "generator": "IntrinsicEngine BUG-094 operational fixture"
  },
  "buffers": [
    {
      "uri": "data:application/octet-stream;base64,",
      "byteLength": 102
    }
  ],
  "bufferViews": [
    {
      "buffer": 0,
      "byteOffset": 0,
      "byteLength": 36,
      "target": 34962
    },
    {
      "buffer": 0,
      "byteOffset": 36,
      "byteLength": 36,
      "target": 34962
    },
    {
      "buffer": 0,
      "byteOffset": 72,
      "byteLength": 24,
      "target": 34962
    },
    {
      "buffer": 0,
      "byteOffset": 96,
      "byteLength": 6,
      "target": 34963
    }
  ],
  "accessors": [
    {
      "bufferView": 0,
      "componentType": 5126,
      "count": 3,
      "type": "VEC3",
      "min": [-0.5, -0.5, 0.0],
      "max": [0.5, 0.5, 0.0]
    },
    {
      "bufferView": 1,
      "componentType": 5126,
      "count": 3,
      "type": "VEC3",
      "min": [0.0, 0.0, 1.0],
      "max": [0.0, 0.0, 1.0]
    },
    {
      "bufferView": 2,
      "componentType": 5126,
      "count": 3,
      "type": "VEC2",
      "min": [0.0, 0.0],
      "max": [1.0, 1.0]
    },
    {
      "bufferView": 3,
      "componentType": 5123,
      "count": 3,
      "type": "SCALAR",
      "min": [0],
      "max": [2]
    }
  ],
  "materials": [
    {
      "name": "BUG094RedMaterial",
      "pbrMetallicRoughness": {
        "baseColorFactor": [1.0, 0.08, 0.03, 1.0],
        "metallicFactor": 0.0,
        "roughnessFactor": 1.0
      }
    }
  ],
  "meshes": [
    {
      "name": "BUG094SharedTriangle",
      "primitives": [
        {
          "attributes": {
            "POSITION": 0,
            "NORMAL": 1,
            "TEXCOORD_0": 2
          },
          "indices": 3,
          "material": 0
        }
      ]
    }
  ],
  "nodes": [
    {
      "name": "BUG094ScaledRoot",
      "scale": [0.8, 0.8, 0.8],
      "children": [1, 2]
    },
    {
      "name": "BUG094LeftInstance",
      "translation": [-1.25, 0.0, 0.0],
      "mesh": 0
    },
    {
      "name": "BUG094RightInstance",
      "translation": [1.25, 0.0, 0.0],
      "mesh": 0
    }
  ],
  "scenes": [
    {
      "name": "BUG094InstancedScene",
      "nodes": [0]
    }
  ],
  "scene": 0
}
